# xmcd
#
# Track frame offsets: 
#        150
#        21942
#        40491
#        59225
#        77182
#        93507
#        112499
#        129194
#        150343
#        174749
#        191470
#        211190
#        229379
#        249719
#        267302
#        291687
#        311217
#        330914
#
# Disc length: 4657 seconds
#
# Revision: 0
# Processed by: cddbd v1.5.1PL2 Copyright (c) Steve Scherf et al.
# Submitted via: ExactAudioCopy v0.95a5
#
DISCID=15122f12
DTITLE=Mary J. Blige - The Breakthrough (iTunes Version)
DYEAR=2005
DGENRE=R&B/Soul
TTITLE0=No One Will Do
TTITLE1=Enough Cryin feat Brook
TTITLE2=About You feat Nina Simone and Will.I.Am
TTITLE3=Be Without You (Kendu Mix)
TTITLE4=Gonna Breakthrough feat Brook
TTITLE5=Good Woman Down
TTITLE6=Take Me As I Am
TTITLE7=Baggage
TTITLE8=Can't Hide from Luv feat Jay-Z
TTITLE9=MJB Da MVP (Alternate Version)
TTITLE10=Can't Get Enough
TTITLE11=Ain't Really Love
TTITLE12=I Found My Everything
TTITLE13=Father In You
TTITLE14=Alone feat Dave Young
TTITLE15=One feat U2
TTITLE16=Show Love (Hidden Track)
TTITLE17=So Lady (Non-LP Version) feat Raphael Saadiq
EXTD=
EXTT0=
EXTT1=
EXTT2=
EXTT3=
EXTT4=
EXTT5=
EXTT6=
EXTT7=
EXTT8=
EXTT9=
EXTT10=
EXTT11=
EXTT12=
EXTT13=
EXTT14=
EXTT15=
EXTT16=
EXTT17=
PLAYORDER=
